<svg xmlns="http://www.w3.org/2000/svg" width="960" height="520" viewBox="0 0 960 520">
<rect width="100%" height="100%" fill="#ffffff"/>
<text x="480.0" y="34" text-anchor="middle" font-family="Arial" font-size="24" fill="#16232a">Top model features</text>
<text x="178" y="85.7" text-anchor="end" font-family="Arial" font-size="13" fill="#27343b">days_with_impressions</text>
<rect x="190" y="70.0" width="117.0" height="24.2" fill="#4E79A7" rx="4"/>
<text x="315.0" y="85.7" font-family="Arial" font-size="13" fill="#27343b">0.16</text>
<text x="178" y="119.9" text-anchor="end" font-family="Arial" font-size="13" fill="#27343b">log_impressions_90d</text>
<rect x="190" y="104.2" width="93.4" height="24.2" fill="#4E79A7" rx="4"/>
<text x="291.4" y="119.9" font-family="Arial" font-size="13" fill="#27343b">0.128</text>
<text x="178" y="154.0" text-anchor="end" font-family="Arial" font-size="13" fill="#27343b">avg_position</text>
<rect x="190" y="138.3" width="79.2" height="24.2" fill="#4E79A7" rx="4"/>
<text x="277.2" y="154.0" font-family="Arial" font-size="13" fill="#27343b">0.108</text>
<text x="178" y="188.2" text-anchor="end" font-family="Arial" font-size="13" fill="#27343b">content_age_days</text>
<rect x="190" y="172.5" width="69.2" height="24.2" fill="#4E79A7" rx="4"/>
<text x="267.2" y="188.2" font-family="Arial" font-size="13" fill="#27343b">0.0948</text>
<text x="178" y="222.4" text-anchor="end" font-family="Arial" font-size="13" fill="#27343b">word_count</text>
<rect x="190" y="206.7" width="30.0" height="24.2" fill="#4E79A7" rx="4"/>
<text x="228.0" y="222.4" font-family="Arial" font-size="13" fill="#27343b">0.0411</text>
<text x="178" y="256.5" text-anchor="end" font-family="Arial" font-size="13" fill="#27343b">char_count</text>
<rect x="190" y="240.8" width="29.3" height="24.2" fill="#4E79A7" rx="4"/>
<text x="227.3" y="256.5" font-family="Arial" font-size="13" fill="#27343b">0.0402</text>
<text x="178" y="290.7" text-anchor="end" font-family="Arial" font-size="13" fill="#27343b">log_clicks_90d</text>
<rect x="190" y="275.0" width="24.0" height="24.2" fill="#4E79A7" rx="4"/>
<text x="222.0" y="290.7" font-family="Arial" font-size="13" fill="#27343b">0.0329</text>
<text x="178" y="324.9" text-anchor="end" font-family="Arial" font-size="13" fill="#27343b">ctr</text>
<rect x="190" y="309.2" width="23.7" height="24.2" fill="#4E79A7" rx="4"/>
<text x="221.7" y="324.9" font-family="Arial" font-size="13" fill="#27343b">0.0324</text>
<text x="178" y="359.0" text-anchor="end" font-family="Arial" font-size="13" fill="#27343b">scroll_rate</text>
<rect x="190" y="343.3" width="22.8" height="24.2" fill="#4E79A7" rx="4"/>
<text x="220.8" y="359.0" font-family="Arial" font-size="13" fill="#27343b">0.0312</text>
<text x="178" y="393.2" text-anchor="end" font-family="Arial" font-size="13" fill="#27343b">days_with_sessions</text>
<rect x="190" y="377.5" width="21.6" height="24.2" fill="#4E79A7" rx="4"/>
<text x="219.6" y="393.2" font-family="Arial" font-size="13" fill="#27343b">0.0296</text>
<text x="178" y="427.4" text-anchor="end" font-family="Arial" font-size="13" fill="#27343b">position_tier_top_3</text>
<rect x="190" y="411.7" width="18.1" height="24.2" fill="#4E79A7" rx="4"/>
<text x="216.1" y="427.4" font-family="Arial" font-size="13" fill="#27343b">0.0248</text>
<text x="178" y="461.5" text-anchor="end" font-family="Arial" font-size="13" fill="#27343b">log_sessions_90d</text>
<rect x="190" y="445.8" width="16.7" height="24.2" fill="#4E79A7" rx="4"/>
<text x="214.7" y="461.5" font-family="Arial" font-size="13" fill="#27343b">0.0229</text>
</svg>